PathFileType	4	(X/Y/Z)	/Users/itak/Documents/Research/Walk-IL/dataset/trc/00137_00007.trc
DataRate	CameraRate	NumFrames	NumMarkers	Units	OrigDataRate	OrigDataStartFrame	OrigNumFrames
100.000000	100.000000	4	53	mm	100.000000	181	726
Frame#	Time	RPSI			LPSI			L3			STRN			T10			C7			CLAV			RBAK			LBAK			LSHO			LUPA			LAEL			LAOL			LWTS			LWPS			LFRA			LIFD			LHPS			LHTS			RSHO			RUPA			RAEL			RAOL			RWTS			RWPS			RFRA			RIFD			RHTS			RHPS			RBHD			LFHD			RFHD			LBHD			LHIP			RHIP			RASI			LASI			LKNE			LTHI			LANK			LTIP			LTOE			LMT1			LMT5			LHEE			RKNE			RTHI			RANK			RTIP			RTOE			RMT1			RMT5			RHEE			
		X1	Y1	Z1	X2	Y2	Z2	X3	Y3	Z3	X4	Y4	Z4	X5	Y5	Z5	X6	Y6	Z6	X7	Y7	Z7	X8	Y8	Z8	X9	Y9	Z9	X10	Y10	Z10	X11	Y11	Z11	X12	Y12	Z12	X13	Y13	Z13	X14	Y14	Z14	X15	Y15	Z15	X16	Y16	Z16	X17	Y17	Z17	X18	Y18	Z18	X19	Y19	Z19	X20	Y20	Z20	X21	Y21	Z21	X22	Y22	Z22	X23	Y23	Z23	X24	Y24	Z24	X25	Y25	Z25	X26	Y26	Z26	X27	Y27	Z27	X28	Y28	Z28	X29	Y29	Z29	X30	Y30	Z30	X31	Y31	Z31	X32	Y32	Z32	X33	Y33	Z33	X34	Y34	Z34	X35	Y35	Z35	X36	Y36	Z36	X37	Y37	Z37	X38	Y38	Z38	X39	Y39	Z39	X40	Y40	Z40	X41	Y41	Z41	X42	Y42	Z42	X43	Y43	Z43	X44	Y44	Z44	X45	Y45	Z45	X46	Y46	Z46	X47	Y47	Z47	X48	Y48	Z48	X49	Y49	Z49	X50	Y50	Z50	X51	Y51	Z51	X52	Y52	Z52	X53	Y53	Z53	

182	1.81	-417.9930114746094	1093.36279296875	917.2749633789062	-531.3023071289062	1103.845581054688	989.0451049804688	-467.8070373535156	1132.419799804688	958.8438110351562	-579.1180419921875	1327.673828125	761.705810546875	-435.4189758300781	1283.262329101562	967.3462524414062	-449.8947448730469	1575.575561523438	931.58544921875	-559.1112060546875	1464.614379882812	785.2920532226562	-355.9991149902344	1387.152465820312	933.7071533203125	-527.8922119140625	1563.840942382812	998.9807739257812	-634.9414672851562	1554.338012695312	972.1227416992188	-682.6677856445312	1430.07666015625	1042.50390625	-717.3944702148438	1215.294555664062	1068.6953125	-630.789794921875	1196.605590820312	1078.718017578125	-777.8760375976562	958.053955078125	979.7256469726562	-741.3616333007812	930.4008178710938	1055.759765625	-740.4232788085938	1100.060668945312	1066.6474609375	-782.72607421875	765.1784057617188	960.1671142578125	-766.7586669921875	856.9862060546875	1039.386596679688	-803.4918212890625	869.7542724609375	978.804443359375	-339.5209350585938	1542.439208984375	779.4537353515625	-282.2182922363281	1465.2216796875	758.4730834960938	-277.2956237792969	1167.443481445312	754.3086547851562	-344.6349182128906	1171.4853515625	823.3014526367188	-418.4553833007812	953.899658203125	632.7235717773438	-351.4056701660156	921.1708984375	668.4346923828125	-290.6244812011719	1096.1533203125	721.1887817382812	-482.3541259765625	770.5271606445312	608.802734375	-451.9053955078125	853.2246704101562	595.752685546875	-388.1114807128906	830.305908203125	627.2296752929688	-398.7760620117188	1734.389404296875	849.751708984375	-581.0689697265625	1810.693115234375	749.9436645507812	-465.4189758300781	1790.587768554688	694.2297973632812	-514.0723266601562	1758.8642578125	915.1577758789062	-682.8927612304688	1027.288208007812	968.1500244140625	-381.9037170410156	983.5046997070312	755.309814453125	-468.5656433105469	1057.395874023438	705.8656616210938	-690.0598754882812	1083.811157226562	853.0372924804688	-793.5946655273438	562.910400390625	795.9998779296875	-776.9138793945312	689.4378662109375	882.275146484375	-894.0838012695312	51.68687438964844	727.63916015625	-854.1823120117188	307.2634582519531	819.6751098632812	-888.8345336914062	126.8785018920898	510.2418212890625	-837.2408447265625	102.1417922973633	572.0617065429688	-942.5289306640625	79.03678894042969	616.3641967773438	-817.312255859375	32.06252670288086	778.2118530273438	-441.2580871582031	503.577392578125	883.2676391601562	-416.0953979492188	770.3761596679688	784.6744995117188	-358.087158203125	44.43257141113281	1118.90966796875	-414.575927734375	375.1229553222656	934.0331420898438	-567.2515258789062	46.77064514160156	1009.040222167969	-547.7307739257812	41.36079406738281	1079.909912109375	-447.4444274902344	45.54392242431641	1015.325805664062	-344.5684509277344	56.65800094604492	1191.325439453125	
183	1.82	-425.4949340820312	1092.619384765625	911.39599609375	-539.6786499023438	1102.980590820312	981.8107299804688	-475.7644348144531	1131.635498046875	952.3565063476562	-584.6498413085938	1326.807373046875	753.7745971679688	-443.2969665527344	1282.35986328125	960.9485473632812	-457.55322265625	1574.735717773438	925.3483276367188	-564.9721069335938	1463.758178710938	777.6597900390625	-363.4003295898438	1386.378295898438	928.4939575195312	-536.2937622070312	1562.876220703125	991.7915649414062	-643.050048828125	1553.32275390625	963.6694946289062	-691.4295043945312	1428.967529296875	1033.547119140625	-725.9378662109375	1214.15478515625	1059.6767578125	-639.3523559570312	1195.7724609375	1070.514770507812	-784.5451049804688	956.1883544921875	971.3285522460938	-748.4843139648438	929.11865234375	1047.765380859375	-748.46630859375	1098.815307617188	1057.86572265625	-788.0419311523438	763.1770629882812	952.7003173828125	-773.3013916015625	855.4700317382812	1031.555297851562	-809.5640258789062	867.66650390625	970.7085571289062	-345.3629455566406	1541.72314453125	774.460693359375	-287.6720275878906	1464.62451171875	754.124267578125	-282.0518188476562	1166.950927734375	750.5980224609375	-350.2278442382812	1170.93603515625	818.5823974609375	-419.7135314941406	951.1900634765625	628.8847045898438	-352.79931640625	919.4407958984375	665.7117919921875	-294.4583740234375	1095.4111328125	717.7916259765625	-481.2944641113281	766.9832153320312	605.723876953125	-451.6709289550781	849.8630981445312	592.3701171875	-387.9516296386719	827.9484252929688	624.8333740234375	-405.47998046875	1733.5791015625	844.4141845703125	-586.580078125	1809.751586914062	742.1827392578125	-470.1802673339844	1789.75244140625	688.025634765625	-521.63720703125	1757.9755859375	908.4076538085938	-691.0509643554688	1026.301025390625	958.7868041992188	-387.0700378417969	982.8609008789062	749.9010620117188	-473.3512878417969	1056.565185546875	699.251953125	-696.7269897460938	1082.8251953125	843.5975341796875	-799.0326538085938	562.348876953125	783.5114135742188	-783.3702392578125	688.6740112304688	870.5801391601562	-897.353271484375	50.09955215454102	715.4847412109375	-858.8788452148438	306.4527893066406	807.2603759765625	-889.4407958984375	125.9821853637695	498.2552490234375	-838.437744140625	101.2621002197266	560.681640625	-944.274658203125	77.773193359375	603.626220703125	-821.0382690429688	30.98970222473145	767.095703125	-445.2055358886719	503.0071411132812	878.5221557617188	-420.6446533203125	769.792724609375	779.37548828125	-358.6310119628906	46.30794143676758	1119.090454101562	-417.4588928222656	375.0675048828125	930.5947265625	-567.7489624023438	46.53056335449219	1008.964172363281	-547.9799194335938	41.42678833007812	1079.713745117188	-447.6372375488281	45.90125274658203	1015.250915527344	-345.3044128417969	59.8624153137207	1191.353271484375	
184	1.83	-433.0893859863281	1092.041870117188	905.2852783203125	-548.1422729492188	1102.241088867188	974.3670043945312	-483.8794250488281	1130.95263671875	945.6409912109375	-590.3218383789062	1326.113891601562	745.7015380859375	-451.2977905273438	1281.570190429688	954.32373046875	-465.260009765625	1574.006225585938	918.9734497070312	-570.9348754882812	1463.065307617188	769.9241333007812	-370.8976745605469	1385.712158203125	923.0907592773438	-544.7103271484375	1562.039794921875	984.4845581054688	-651.1624755859375	1552.499145507812	955.1443481445312	-700.1961669921875	1428.036376953125	1024.51708984375	-734.484130859375	1213.17333984375	1050.512817382812	-647.9158325195312	1195.10693359375	1062.119506835938	-791.231689453125	954.4774169921875	962.8252563476562	-755.6048583984375	928.010498046875	1039.6650390625	-756.5247192382812	1097.733764648438	1048.939331054688	-793.3666381835938	761.322509765625	945.184814453125	-779.8442993164062	854.1279296875	1023.642700195312	-815.5987548828125	865.71142578125	962.5722045898438	-351.316162109375	1541.11767578125	769.3257446289062	-293.2515563964844	1464.144775390625	749.6073608398438	-286.8798522949219	1166.597290039062	746.8057250976562	-355.896728515625	1170.5224609375	813.755615234375	-420.8088073730469	948.5038452148438	625.1095581054688	-354.0400695800781	917.80859375	663.0931396484375	-298.320556640625	1094.803955078125	714.37255859375	-479.9696350097656	763.4312744140625	602.8763427734375	-451.1742858886719	846.477783203125	589.150390625	-387.6382446289062	825.6532592773438	622.661865234375	-412.2738037109375	1732.921752929688	838.9482421875	-592.1372680664062	1808.957641601562	734.3313598632812	-475.0194702148438	1789.07275390625	681.7271728515625	-529.2503051757812	1757.246215820312	901.51806640625	-699.2779541015625	1025.45703125	949.1861572265625	-392.4140319824219	982.3733520507812	744.2771606445312	-478.2870178222656	1055.909057617188	692.4417724609375	-703.545654296875	1082.028076171875	833.9544677734375	-804.2977905273438	561.78515625	770.8104248046875	-789.452392578125	687.9911499023438	858.4832153320312	-899.555419921875	48.10236740112305	705.490234375	-862.7490844726562	305.4480590820312	795.5572509765625	-889.8961181640625	123.5972595214844	488.0956420898438	-839.2249145507812	99.19569396972656	551.0054321289062	-945.3764038085938	75.67108154296875	593.19677734375	-823.491455078125	29.86193084716797	757.9157104492188	-449.1845397949219	502.5782470703125	873.5219116210938	-425.2557373046875	769.3665771484375	773.8518676757812	-359.2071228027344	48.43399810791016	1119.163330078125	-420.33447265625	375.1881408691406	926.9486083984375	-568.2196044921875	46.31719970703125	1008.806762695312	-548.2351684570312	41.58596420288086	1079.466064453125	-447.8804626464844	46.24261856079102	1015.103271484375	-346.0690307617188	63.44647216796875	1191.243408203125	
185	1.84	-440.7766418457031	1091.633544921875	898.92529296875	-556.7125854492188	1101.64697265625	966.6730346679688	-492.1592407226562	1130.384155273438	938.6641845703125	-596.1290283203125	1325.604125976562	737.4605712890625	-459.4353942871094	1280.900756835938	947.4828491210938	-473.0303955078125	1573.4013671875	912.4712524414062	-577.0010375976562	1462.54541015625	762.0712890625	-378.5265502929688	1385.150268554688	917.5150756835938	-553.1637573242188	1561.344116210938	977.0646362304688	-659.3046875	1551.869384765625	946.5390625	-708.9804077148438	1427.290649414062	1015.412963867188	-743.0281372070312	1212.351196289062	1041.2158203125	-656.4722900390625	1194.6044921875	1053.534057617188	-797.948974609375	952.9300537109375	954.2088012695312	-762.720458984375	927.0784912109375	1031.443725585938	-764.5999145507812	1096.817993164062	1039.866455078125	-798.7211303710938	759.6195068359375	937.5894165039062	-786.398193359375	852.9689331054688	1015.627868652344	-821.6234130859375	863.9116821289062	954.3681030273438	-357.3730773925781	1540.62841796875	764.073974609375	-298.9603881835938	1463.783325195312	744.95556640625	-291.7706298828125	1166.389038085938	742.9315185546875	-361.6290893554688	1170.242431640625	808.8321533203125	-421.7584838867188	945.8751831054688	621.4005126953125	-355.1295471191406	916.3065795898438	660.5712280273438	-302.1923217773438	1094.344848632812	710.9236450195312	-478.4150085449219	759.9207153320312	600.2587890625	-450.4530334472656	843.1197509765625	586.093505859375	-387.1886291503906	823.4531860351562	620.696533203125	-419.1578979492188	1732.432495117188	833.3583374023438	-597.7263793945312	1808.327514648438	726.3845825195312	-479.9228515625	1788.558471679688	675.3347778320312	-536.91357421875	1756.701293945312	894.4800415039062	-707.5669555664062	1024.780151367188	939.3289794921875	-397.9358215332031	982.025634765625	738.4183349609375	-483.3503723144531	1055.424682617188	685.41162109375	-710.4882202148438	1081.421630859375	824.0604248046875	-809.35546875	561.2150268554688	757.997314453125	-795.1554565429688	687.3727416992188	846.0590209960938	-900.877685546875	45.88575744628906	697.465576171875	-865.9080200195312	304.2884521484375	784.5571899414062	-890.0401611328125	119.7691116333008	479.5105895996094	-839.5396118164062	96.02867126464844	542.8932495117188	-945.8604736328125	72.79613494873047	584.7839965820312	-824.9442749023438	28.83374214172363	750.5903930664062	-453.25634765625	502.2784118652344	868.2222290039062	-429.9549255371094	769.08447265625	768.072998046875	-359.8053894042969	50.8355712890625	1119.099365234375	-423.257568359375	375.4822387695312	923.0540161132812	-568.6605834960938	46.12421035766602	1008.569213867188	-548.4735107421875	41.86005783081055	1079.144165039062	-448.1627807617188	46.56229782104492	1014.873657226562	-346.8649291992188	67.43543243408203	1190.958862304688	
